<svg xmlns="http://www.w3.org/2000/svg" xmlns:xlink="http://www.w3.org/1999/xlink" width="600" height="600" version="1.1"><defs><linearGradient id="g0" x1="0%" x2="0%" y1="0%" y2="100%"><stop offset="0%" stop-color="#380c17"/><stop offset="60%" stop-color="#d84a4a"/><stop offset="100%" stop-color="#db8f57"/></linearGradient><linearGradient id="g1" x1="0%" x2="0%" y1="0%" y2="100%"><stop offset="0%" stop-color="#c26060"/><stop offset="30%" stop-color="#a83024"/><stop offset="100%" stop-color="#d32d2d"/></linearGradient><linearGradient id="g2" x1="0%" x2="0%" y1="0%" y2="100%"><stop offset="0%" stop-color="#c52"/><stop offset="33%" stop-color="#ae6240"/><stop offset="66%" stop-color="#b9354b"/><stop offset="100%" stop-color="#380c17"/></linearGradient><pattern id="pattern0" width="50" height="50" x="0" y="0" patternUnits="userSpaceOnUse"><g transform="rotate(45)"><rect width="70" height="22" fill="#490d18"/><rect width="99" height="37" y="-50" fill="#490d18"/></g></pattern><filter id="shadow0" width="200%" height="200%" x="-50%" y="-50%"><feOffset dx="25" dy="40" in="SourceGraphic" result="offOut"/><feColorMatrix in="offOut" result="matrixOut" type="matrix" values="0.05 0 0 0 0 0 0.1 0 0 0 0 0 0.1 0.005 0 0 0 0 0.15 0.0"/><feGaussianBlur in="matrixOut" result="blurOut" stdDeviation="10"/><feBlend in="SourceGraphic" in2="blurOut" mode="normal"/></filter><filter id="shadow1" width="200%" height="200%" x="-50%" y="-50%"><feOffset dx="0" dy="0" in="SourceGraphic" result="offOut"/><feColorMatrix in="offOut" result="matrixOut" type="matrix" values="0.05 0 0 0 0 0 0.05 0 0 0 0 0 0.05 0 0 0 0 0 0.2 0.0"/><feGaussianBlur in="matrixOut" result="blurOut" stdDeviation="7"/><feBlend in="SourceGraphic" in2="blurOut" mode="normal"/></filter></defs><g transform="translate(40,30)"><polygon fill="url(#pattern0)" points="28 373 73 432 483 122 373 18" filter="url(#shadow1) url(#shadow0)" opacity=".5"/><polygon fill="url(#g0)" points="16 152 19 383 76 436 73 212" filter="url(#shadow1) url(#shadow0)"/><polygon fill="#400010" points="16 152 76 436 73 212" opacity=".4"/><polygon fill="url(#g2)" points="483 62 373 18 368 341 405 370 373 498 485 450" filter="url(#shadow1) url(#shadow0)"/><polygon fill="#400010" points="483 62 373 498 485 450" opacity=".3"/><polygon fill="url(#g1)" points="16 142 60 118 485 450 373 498" filter="url(#shadow1) url(#shadow0)"/><polygon fill="#401224" points="16 142 60 118 373 498" opacity=".7"/><polygon fill="#401219" points="220 272 430 437 378 458" opacity=".2"/></g></svg>