<svg xmlns="http://www.w3.org/2000/svg" xmlns:svg="http://www.w3.org/2000/svg" id="svg2" width="16" height="16" version="1.1" viewBox="0 0 16 16"><metadata id="metadata7"/><g id="layer1" transform="translate(0,-1036.3622)"><path style="fill:#656565;fill-rule:evenodd;stroke:none;stroke-width:1px;stroke-linecap:butt;stroke-linejoin:miter;stroke-opacity:1;fill-opacity:1" id="path3340" d="m 5.5,3 2,2 6.5,0 0,-2 z" transform="translate(0,1036.3622)"/><path style="fill:#656565;fill-rule:evenodd;stroke:none;stroke-width:1px;stroke-linecap:butt;stroke-linejoin:miter;stroke-opacity:1;fill-opacity:1" id="path3340-7" d="m 2,7 0,2 2.5,0 -2,-2 z m 8,0 0,2 4,0 0,-2 z" transform="translate(0,1036.3622)"/><path style="fill:#656565;fill-rule:evenodd;stroke:none;stroke-width:1px;stroke-linecap:butt;stroke-linejoin:miter;stroke-opacity:1;fill-opacity:1" id="path3340-5" d="m 2,1047.3622 0,2 12,0 0,-2 z"/><path style="fill:#656565;fill-rule:evenodd;stroke:none;stroke-width:1px;stroke-linecap:butt;stroke-linejoin:miter;stroke-opacity:1;fill-opacity:1" id="path3375" d="M 3 2 L 1 4 L 2 5 L 4 3 L 3 2 z M 4.5 3.5 L 2.5 5.5 L 7 10 L 9 10 L 9 8 L 4.5 3.5 z" transform="translate(0,1036.3622)"/></g></svg>